# xmcd
#
# Track frame offsets: 
#        150
#        15425
#        32832
#        48054
#        65145
#        82020
#        96948
#        110479
#        128624
#        144771
#        163823
#
# Disc length: 2391 seconds
#
# Revision: 5
# Processed by: cddbd v1.5.2PL0 Copyright (c) Steve Scherf et al.
# Submitted via: ExactAudioCopy v1.0b3
#
DISCID=8a09550b
DTITLE=The Pierces - You and I
DYEAR=2011
DGENRE=Folk/Rock
TTITLE0=You'll Be Mine
TTITLE1=It Will Not Be Forgotten
TTITLE2=Love You More
TTITLE3=We Are Stars
TTITLE4=Glorious
TTITLE5=The Good Samaritan
TTITLE6=Kissing You Goodbye
TTITLE7=Close My Eyes
TTITLE8=Space and Time
TTITLE9=Drag You Down
TTITLE10=I Put Your Records On
EXTD=
EXTT0=
EXTT1=
EXTT2=
EXTT3=
EXTT4=
EXTT5=
EXTT6=
EXTT7=
EXTT8=
EXTT9=
EXTT10=
PLAYORDER=
